<svg width="15" height="15" viewBox="0 0 24 24" xmlns="http://www.w3.org/2000/svg"><path fill="#e8c300" d="M15.055 3.25h-6.11c-1.367 0-2.47 0-3.337.117-.9.12-1.658.38-2.26.981-.602.602-.86 1.36-.981 2.26-.117.867-.117 1.97-.117 3.337v2.11c0 1.367 0 2.47.117 3.337.12.9.38 1.658.981 2.26.602.602 1.36.86 2.26.982.867.116 1.97.116 3.337.116h6.11c1.367 0 2.47 0 3.337-.116.9-.122 1.658-.38 2.26-.982.602-.602.86-1.36.982-2.26.116-.867.116-1.97.116-3.337v-2.11c0-1.367 0-2.47-.116-3.337-.122-.9-.38-1.658-.982-2.26-.602-.602-1.36-.86-2.26-.981-.867-.117-1.97-.117-3.337-.117zm-8.72 4.08a.75.75 0 00-.67 1.34l5.105 2.554a2.75 2.75 0 002.46 0l5.105-2.553a.75.75 0 10-.67-1.342l-5.106 2.553a1.25 1.25 0 01-1.118 0L6.335 7.329z"/></svg>