<svg xmlns="http://www.w3.org/2000/svg" viewBox="0 0 512.004 512.004" width="15" height="15"><g fill="#e8c300"><path d="M506.394 92.79L363.119 228.172 506.394 419.19c3.477-6.955 5.611-14.656 5.611-22.955v-280.49c-.001-8.277-2.155-16-5.611-22.955zM281.131 246.979L472.896 65.753c-4.075-1.045-8.256-1.749-12.651-1.749H51.755c-4.736 0-9.216.832-13.568 2.027l192.939 181.184c14.037 12.799 35.669 12.799 50.005-.236z"/><path d="M310.118 278.273c-15.509 14.123-34.88 21.184-54.229 21.184-19.221 0-38.421-6.976-53.717-20.907l-22.08-20.736L40.849 446.785c3.52.768 7.147 1.216 10.901 1.216h408.491c4.523 0 8.853-.768 13.035-1.877L331.921 257.665l-21.803 20.608zM5.184 93.575C1.963 100.317 0 107.783 0 115.741v280.512c0 9.088 2.56 17.536 6.699 24.96l142.08-192.789L5.184 93.575z"/></g></svg>